{
  "title": "Courier Boy Kalyan (2015) TELUGU - DesiCaMRiP - XviD - 1CD - MP3",
  "uid": 12450203,
  "size": 726328882,
  "categoryP": "video",
  "categoryS": "movies",
  "magnet": "?xt=urn:btih:6845cf7dc36bd2c721aa497a3cb6c6e6c8795891&amp;dn=Courier+Boy+Kalyan+%282015%29+TELUGU+-+DesiCaMRiP+-+XviD+-+1CD+-+MP3&amp;tr=udp%3A%2F%2Ftracker.openbittorrent.com%3A80&amp;tr=udp%3A%2F%2Fopen.demonii.com%3A1337&amp;tr=udp%3A%2F%2Ftracker.coppersurfer.tk%3A6969&amp;tr=udp%3A%2F%2Fexodus.desync.com%3A6969",
  "seeders": 95,
  "leechers": 41,
  "uploader": "SS132203",
  "files": 2,
  "time": 1442673529,
  "description": "Courier Boy Kalyan (2015) TELUGU - DesiCaMRiP - XviD - 1CD - MP3\n &lt;a href=&quot;\nhttp://imgsparrow.co/image/8qx&quot; rel=&quot;nofollow&quot; target=&quot;_NEW&quot;&gt;\nhttp://imgsparrow.co/image/8qx&lt;/a&gt;\n &lt;a href=&quot;\nhttp://imgsparrow.co/image/8Yr&quot; rel=&quot;nofollow&quot; target=&quot;_NEW&quot;&gt;\nhttp://imgsparrow.co/image/8Yr&lt;/a&gt;\n &lt;a href=&quot;\nhttp://imgsparrow.co/image/9b&quot; rel=&quot;nofollow&quot; target=&quot;_NEW&quot;&gt;\nhttp://imgsparrow.co/image/9b&lt;/a&gt;\n\nInfo : - \n\nFormat : AVI\nFormat/Info : Audio Video Interleave\nFile size : 693 MiB\nDuration : 1h 41mn\nOverall bit rate : 953 Kbps\n\nVideo\nID : 0\nFormat : MPEG-4 Visual\nFormat profile : Advanced Simple@L5\nFormat settings, BVOP : 2\nFormat settings, QPel : Yes\nFormat settings, GMC : No warppoints\nFormat settings, Matrix : Default (H.263)\nCodec ID : XVID\nCodec ID/Hint : XviD\nDuration : 1h 41mn\nBit rate : 914 Kbps\nWidth : 640 pixels\nHeight : 256 pixels\nDisplay aspect ratio : 2.500\nFrame rate : 29.970 fps\nColor space : YUV\nChroma subsampling : 4:2:0\nBit depth : 8 bits\nScan type : Progressive\nCompression mode : Lossy\nBits/(Pixel*Frame) : 0.186\nStream size : 664 MiB (96%)\nWriting library : XviD 67\n\nAudio\nID : 1\nFormat : MPEG Audio\nFormat version : Version 2\nFormat profile : Layer 3\nMode : Joint stereo\nMode extension : MS Stereo\nCodec ID : 55\nCodec ID/Hint : MP3\nDuration : 1h 41mn\nBit rate mode : Constant\nBit rate : 32.0 Kbps\nChannel(s) : 2 channels\nSampling rate : 16.0 KHz\nCompression mode : Lossy\nStream size : 23.3 MiB (3%)\nAlignment : Aligned on interleaves\nInterleave, duration : 133 ms (4.00 video frames)\nInterleave, preload duration : 216 ms\n\nScreens : - \n &lt;a href=&quot;\nhttp://imgsparrow.co/image/8YD&quot; rel=&quot;nofollow&quot; target=&quot;_NEW&quot;&gt;\nhttp://imgsparrow.co/image/8YD&lt;/a&gt; &lt;a href=&quot;\nhttp://imgsparrow.co/image/8YG&quot; rel=&quot;nofollow&quot; target=&quot;_NEW&quot;&gt;\nhttp://imgsparrow.co/image/8YG&lt;/a&gt; &lt;a href=&quot;\nhttp://imgsparrow.co/image/8Ye&quot; rel=&quot;nofollow&quot; target=&quot;_NEW&quot;&gt;\nhttp://imgsparrow.co/image/8Ye&lt;/a&gt; &lt;a href=&quot;\nhttp://imgsparrow.co/image/8Yg&quot; rel=&quot;nofollow&quot; target=&quot;_NEW&quot;&gt;\nhttp://imgsparrow.co/image/8Yg&lt;/a&gt; &lt;a href=&quot;\nhttp://imgsparrow.co/image/8Yq&quot; rel=&quot;nofollow&quot; target=&quot;_NEW&quot;&gt;\nhttp://imgsparrow.co/image/8Yq&lt;/a&gt; &lt;a href=&quot;\nhttp://imgsparrow.co/image/8Yz&quot; rel=&quot;nofollow&quot; target=&quot;_NEW&quot;&gt;\nhttp://imgsparrow.co/image/8Yz&lt;/a&gt; &lt;a href=&quot;\nhttp://imgsparrow.co/image/8Y7&quot; rel=&quot;nofollow&quot; target=&quot;_NEW&quot;&gt;\nhttp://imgsparrow.co/image/8Y7&lt;/a&gt; &lt;a href=&quot;\nhttp://imgsparrow.co/image/8Yk&quot; rel=&quot;nofollow&quot; target=&quot;_NEW&quot;&gt;\nhttp://imgsparrow.co/image/8Yk&lt;/a&gt; &lt;a href=&quot;\nhttp://imgsparrow.co/image/8Yn&quot; rel=&quot;nofollow&quot; target=&quot;_NEW&quot;&gt;\nhttp://imgsparrow.co/image/8Yn&lt;/a&gt;\n &lt;a href=&quot;\nhttp://imgsparrow.co/image/8nG&quot; rel=&quot;nofollow&quot; target=&quot;_NEW&quot;&gt;\nhttp://imgsparrow.co/image/8nG&lt;/a&gt;",
  "parsed": {
    "xt": "urn:btih:6845cf7dc36bd2c721aa497a3cb6c6e6c8795891",
    "dn": "Courier Boy Kalyan (2015) TELUGU - DesiCaMRiP - XviD - 1CD - MP3",
    "tr": [
      "udp://exodus.desync.com:6969",
      "udp://open.demonii.com:1337",
      "udp://tracker.coppersurfer.tk:6969",
      "udp://tracker.openbittorrent.com:80"
    ],
    "infoHash": "6845cf7dc36bd2c721aa497a3cb6c6e6c8795891",
    "infoHashBuffer": {
      "type": "Buffer",
      "data": [
        104,
        69,
        207,
        125,
        195,
        107,
        210,
        199,
        33,
        170,
        73,
        122,
        60,
        182,
        198,
        230,
        200,
        121,
        88,
        145
      ]
    },
    "name": "Courier Boy Kalyan (2015) TELUGU - DesiCaMRiP - XviD - 1CD - MP3",
    "announce": [
      "udp://exodus.desync.com:6969",
      "udp://open.demonii.com:1337",
      "udp://tracker.coppersurfer.tk:6969",
      "udp://tracker.openbittorrent.com:80"
    ],
    "urlList": []
  },
  "previous": 2,
  "peers": 2,
  "last_updated": "2016-12-27T02:39:38.678Z"
}